# xmcd
#
# Track frame offsets:
#	150
#	18670
#	56170
#	85117
#	110222
#
# Disc length: 1715 seconds
#
# Revision: 0
# Processed by: cddbd v1.4PL0 Copyright (c) Steve Scherf et al.
# Submitted via: EasyCDDAExtractor 5.0.0.0
#
DISCID=4006b105
DTITLE=East 17 - Hey Child
DYEAR=1900
DGENRE=
TTITLE0=Hey Child(7 Inch Radio Edit)
TTITLE1=Hey Child(Matthew Roberts' Low Pressure Phunk Remix)
TTITLE2=Hey Child(Trade Mix)
TTITLE3=Hey Child(4 X Men Mix)
TTITLE4=Hey Child(Heavenly Mix)
EXTD=
EXTT0=
EXTT1=
EXTT2=
EXTT3=
EXTT4=
PLAYORDER=
